# xmcd
#
# Track frame offsets:
#	150
#	13220
#	24450
#	38152
#	58935
#	72275
#	85122
#	99912
#	111467
#	122462
#	135257
#
# Disc length: 1994 seconds
#
# Revision: 0
# Processed by: cddbd v1.5.1PL2 Copyright (c) Steve Scherf et al.
# Submitted via: audiograbber 1.83.01
#
DISCID=8b07c80b
DTITLE=Elvis Presley - Love Letters from Elvis
DYEAR=1900
DGENRE=
TTITLE0=Love Letters
TTITLE1=When I'm Over You
TTITLE2=If I Were You
TTITLE3=Get My Mojo Working
TTITLE4=Hart Of Rome
TTITLE5=Only Believe
TTITLE6=This Is Our Dance
TTITLE7=Cindy, Cindy
TTITLE8=I'll Never Know
TTITLE9=It Ain't No Big Thing (But it's Growing)
TTITLE10=Life
EXTD=
EXTT0=
EXTT1=
EXTT2=
EXTT3=
EXTT4=
EXTT5=
EXTT6=
EXTT7=
EXTT8=
EXTT9=
EXTT10=
PLAYORDER=
